<svg xmlns="http://www.w3.org/2000/svg" width="1200" height="630" viewBox="0 0 1200 630" fill="none">
  <defs>
    <linearGradient id="bg" x1="1" y1="0" x2="0" y2="1">
      <stop offset="0%" stop-color="#18181b" />
      <stop offset="55%" stop-color="#09090b" />
      <stop offset="100%" stop-color="#18181b" />
    </linearGradient>
    <linearGradient id="faviconGrad" x1="0" y1="0" x2="1" y2="1">
      <stop offset="0%" stop-color="#4f46e5" />
      <stop offset="100%" stop-color="#06b6d4" />
    </linearGradient>
  </defs>
  <rect width="1200" height="630" fill="url(#bg)" />
  <rect x="80" y="80" width="1040" height="470" rx="24" fill="rgba(99,102,241,0.12)" stroke="rgba(148,163,184,0.2)" stroke-width="2" />
  <!-- Brand block centered vertically in inner card (midline y=315) -->
  <g transform="translate(120,209) scale(2.25)">
      <path
        d="M32 4 L56 12 V28 C56 44 44 54 32 60 C20 54 8 44 8 28 V12 Z"
        fill="url(#faviconGrad)"
      />
      <circle cx="22" cy="28" r="3" fill="#fff" />
      <circle cx="42" cy="28" r="3" fill="#fff" />
      <circle cx="32" cy="40" r="3" fill="#fff" />
      <path
        d="M22 28 L42 28 L32 40 Z"
        fill="none"
        stroke="#fff"
        stroke-width="2"
        stroke-linecap="round"
      />
      <circle cx="32" cy="20" r="2" fill="#fde68a" />
  </g>
  <text
      x="288"
      y="281"
      fill="#fafafa"
      font-family="system-ui, sans-serif"
      font-size="56"
      font-weight="700"
      dominant-baseline="middle"
  >Proxify CF</text>
  <text fill="#94a3b8" font-family="system-ui, sans-serif" font-size="28">
    <tspan x="288" y="377">Cloudflare Worker reverse proxy</tspan>
    <tspan x="288" y="413">D1. JWT. Admin console</tspan>
  </text>
</svg>
